<svg version="1.1" id="Слой_1" xmlns="http://www.w3.org/2000/svg" xmlns:xlink="http://www.w3.org/1999/xlink" x="0px" y="0px"
	 viewBox="0 0 6 10" style="enable-background:new 0 0 6 10;" xml:space="preserve">
<path class="st0" d="M5.8,5.6c0,0-4.1,4-4.2,4.1C1.4,9.8,1.2,10,0.9,10c-0.2,0-0.4-0.1-0.6-0.3C0.2,9.5,0,9.3,0,9.1
	c0-0.3,0.1-0.5,0.3-0.7L3.8,5L0.4,1.6C0.2,1.4,0.1,1.1,0.1,0.9s0.1-0.4,0.3-0.6C0.5,0.2,0.7,0,1,0c0.3,0,0.5,0.1,0.7,0.3l4,4.1
	C5.8,4.5,6,4.7,6,5C6,5.2,5.9,5.4,5.8,5.6L5.8,5.6z"/>
</svg>
