<svg version="1.1" id="Слой_1" xmlns="http://www.w3.org/2000/svg" xmlns:xlink="http://www.w3.org/1999/xlink" x="0px" y="0px"
	 viewBox="0 0 6 10" style="enable-background:new 0 0 6 10;" xml:space="preserve">
<path class="st0" d="M0.2,5.6C0.1,5.4,0,5.2,0,5c0-0.3,0.2-0.5,0.3-0.6l4-4.1C4.5,0.1,4.7,0,5,0c0.3,0,0.4,0.1,0.6,0.3
	c0.2,0.2,0.3,0.4,0.3,0.6S5.8,1.4,5.6,1.6L2.2,5l3.4,3.4C5.8,8.6,6,8.8,6,9.1c0,0.2-0.1,0.4-0.3,0.6C5.4,9.9,5.2,10,5.1,10
	c-0.3,0-0.4-0.1-0.6-0.3C4.3,9.6,0.2,5.6,0.2,5.6L0.2,5.6z"/>
</svg>
