<svg version="1.1" id="Слой_1" xmlns="http://www.w3.org/2000/svg" xmlns:xlink="http://www.w3.org/1999/xlink" x="0px" y="0px"
	 viewBox="0 0 10.5 10" style="enable-background:new 0 0 10.5 10;" xml:space="preserve">
<path class="st0" d="M6.1,10C5.7,9.1,5.5,8.2,5.5,7.3s0.1-1.8,0.4-2.6C6.2,3.8,6.7,3,7.3,2.2S8.6,0.7,9.4,0l0.9,0.6
	c0.1,0.1,0.2,0.2,0.2,0.4c0,0.1,0,0.2-0.1,0.3S9.5,2.4,9.2,2.9s-0.5,1-0.7,1.5C8.3,5,8.2,5.6,8.3,6.2s0.2,1.3,0.5,1.9
	c0.1,0.2,0.1,0.4,0,0.6C8.7,8.9,8.5,9,8.3,9.1L6.1,10z M0.6,10C0.2,9.1,0,8.2,0,7.3s0.1-1.8,0.4-2.6C0.7,3.8,1.2,3,1.8,2.2
	S3.1,0.7,3.9,0l0.9,0.6C4.9,0.7,5,0.8,5,1c0,0.1,0,0.2-0.1,0.3S4,2.4,3.7,2.9S3.2,3.8,3,4.4C2.9,5.2,2.8,5.7,2.9,6.2
	C3,6.8,3,7.5,3.3,8.2c0.1,0.2,0.1,0.4,0,0.6S3,9.1,2.8,9.2L0.6,10z"/>
</svg>
