<svg version="1.1" id="Слой_1" xmlns="http://www.w3.org/2000/svg" xmlns:xlink="http://www.w3.org/1999/xlink" x="0px" y="0px"
	 viewBox="0 0 10.5 10" style="enable-background:new 0 0 10.5 10;" xml:space="preserve">
<path class="st0" d="M4.4,0C4.8,0.9,5,1.8,5,2.7S4.9,4.5,4.6,5.3C4.3,6.2,3.8,7,3.2,7.8S1.9,9.3,1.1,10L0.2,9.4C0.1,9.3,0,9.2,0,9
	c0-0.1,0-0.2,0.1-0.3S1,7.6,1.3,7.1c0.3-0.5,0.5-1,0.7-1.5C2.2,5,2.3,4.4,2.2,3.8C2.1,3.2,2,2.5,1.7,1.9c-0.1-0.2-0.1-0.4,0-0.6
	C1.8,1.1,2,1,2.2,0.9L4.4,0z M9.9,0c0.4,0.9,0.6,1.8,0.6,2.7s-0.1,1.8-0.4,2.6C9.8,6.2,9.3,7,8.7,7.8C8.1,8.6,7.4,9.3,6.6,10
	L5.7,9.4C5.6,9.3,5.5,9.2,5.5,9c0-0.1,0-0.2,0.1-0.3c0.1-0.1,0.9-1.1,1.2-1.6c0.3-0.5,0.5-0.9,0.7-1.5c0.1-0.8,0.2-1.3,0.1-1.8
	c-0.1-0.6-0.1-1.3-0.4-2c-0.1-0.2-0.1-0.4,0-0.6C7.3,1,7.5,0.9,7.7,0.8L9.9,0z"/>
</svg>
