<svg xmlns="http://www.w3.org/2000/svg" viewBox="0 0 10.5 10"><path class="st0" d="M4.4 0c.4.9.6 1.8.6 2.7s-.1 1.8-.4 2.6c-.3.9-.8 1.7-1.4 2.5S1.9 9.3 1.1 10l-.9-.6C.1 9.3 0 9.2 0 9c0-.1 0-.2.1-.3S1 7.6 1.3 7.1c.3-.5.5-1 .7-1.5.2-.6.3-1.2.2-1.8-.1-.6-.2-1.3-.5-1.9-.1-.2-.1-.4 0-.6.1-.2.3-.3.5-.4L4.4 0zm5.5 0c.4.9.6 1.8.6 2.7s-.1 1.8-.4 2.6c-.3.9-.8 1.7-1.4 2.5-.6.8-1.3 1.5-2.1 2.2l-.9-.6c-.1-.1-.2-.2-.2-.4 0-.1 0-.2.1-.3.1-.1.9-1.1 1.2-1.6.3-.5.5-.9.7-1.5.1-.8.2-1.3.1-1.8-.1-.6-.1-1.3-.4-2-.1-.2-.1-.4 0-.6.1-.2.3-.3.5-.4L9.9 0z"/></svg>